<svg width="5262" height="5262" viewBox="0 0 5262 5262" fill="none" xmlns="http://www.w3.org/2000/svg">
<g clip-path="url(#clip0_117_14)">
<rect width="5262" height="5262" rx="2631" fill="white"/>
<rect width="5262" height="5262" fill="black"/>
<path d="M4184.88 1099H904.599L2346.48 2180.41L1048.79 4126.95L4076.74 4163L2870.17 3039.47L4184.88 1099ZM4184.88 1099L3265.68 1639.71" stroke="white" stroke-width="37.9943"/>
<mask id="path-4-outside-1_117_14" maskUnits="userSpaceOnUse" x="970.446" y="1891.67" width="3439" height="1371" fill="black">
<rect fill="white" x="970.446" y="1891.67" width="3439" height="1371"/>
<path fill-rule="evenodd" clip-rule="evenodd" d="M2849.41 3047.56C3776.49 2798.14 4456.57 2385.24 4368.41 2125.32C4280.25 1865.4 3457.23 1856.88 2530.14 2106.29C1603.05 2355.71 922.972 2768.61 1011.14 3028.53C1099.3 3288.45 1922.32 3296.97 2849.41 3047.56ZM2808.71 3001.66C3689.45 2764.72 4311.07 2366.73 4235.39 2143.62C4159.71 1920.5 3237.78 1954.09 2357.05 2191.03C1476.32 2427.98 976.563 2794.76 1052.24 3017.88C1127.92 3240.99 1927.98 3238.61 2808.71 3001.66Z"/>
</mask>
<path fill-rule="evenodd" clip-rule="evenodd" d="M2849.41 3047.56C3776.49 2798.14 4456.57 2385.24 4368.41 2125.32C4280.25 1865.4 3457.23 1856.88 2530.14 2106.29C1603.05 2355.71 922.972 2768.61 1011.14 3028.53C1099.3 3288.45 1922.32 3296.97 2849.41 3047.56ZM2808.71 3001.66C3689.45 2764.72 4311.07 2366.73 4235.39 2143.62C4159.71 1920.5 3237.78 1954.09 2357.05 2191.03C1476.32 2427.98 976.563 2794.76 1052.24 3017.88C1127.92 3240.99 1927.98 3238.61 2808.71 3001.66Z" fill="black"/>
<path d="M4368.41 2125.32L4399.43 2114.8L4368.41 2125.32ZM2849.41 3047.56L2857.92 3079.19L2857.92 3079.19L2849.41 3047.56ZM2530.14 2106.29L2538.65 2137.92L2538.65 2137.92L2530.14 2106.29ZM1011.14 3028.53L1042.15 3018.01L1042.15 3018.01L1011.14 3028.53ZM4235.39 2143.62L4266.41 2133.09L4235.39 2143.62ZM2808.71 3001.66L2817.22 3033.29L2817.22 3033.29L2808.71 3001.66ZM2357.05 2191.03L2365.56 2222.66L2365.56 2222.66L2357.05 2191.03ZM1052.24 3017.88L1021.22 3028.4L1021.22 3028.4L1052.24 3017.88ZM4337.39 2135.84C4353.91 2184.52 4336.73 2246.98 4273.45 2323.05C4210.9 2398.25 4108.62 2479.82 3972.63 2562.38C3701.1 2727.23 3302.39 2891.77 2840.9 3015.93L2857.92 3079.19C3323.52 2953.92 3728.38 2787.31 4006.63 2618.38C4145.52 2534.05 4254.68 2448.06 4323.81 2364.95C4392.23 2282.7 4427 2196.08 4399.43 2114.8L4337.39 2135.84ZM2538.65 2137.92C3000.09 2013.78 3434.58 1954.15 3763.53 1957.56C3928.21 1959.26 4064.67 1976.76 4164.33 2008.8C4265.48 2041.32 4320.49 2086 4337.39 2135.84L4399.43 2114.8C4372.25 2034.67 4291.32 1980.82 4184.38 1946.44C4075.96 1911.57 3932.19 1893.79 3764.21 1892.05C3427.84 1888.57 2987.27 1949.39 2521.63 2074.66L2538.65 2137.92ZM1042.15 3018.01C1025.64 2969.33 1042.82 2906.86 1106.1 2830.79C1168.65 2755.59 1270.93 2674.03 1406.92 2591.47C1678.44 2426.61 2077.16 2262.08 2538.65 2137.92L2521.63 2074.66C2056.03 2199.92 1651.16 2366.54 1372.92 2535.47C1234.02 2619.8 1124.87 2705.79 1055.73 2788.9C987.321 2871.15 952.548 2957.77 980.118 3039.05L1042.15 3018.01ZM2840.9 3015.93C2379.45 3140.07 1944.97 3199.7 1616.02 3196.29C1451.33 3194.59 1314.87 3177.09 1215.21 3145.05C1114.07 3112.53 1059.06 3067.84 1042.15 3018.01L980.118 3039.05C1007.3 3119.17 1088.23 3173.03 1195.16 3207.41C1303.59 3242.27 1447.36 3260.06 1615.34 3261.8C1951.7 3265.28 2392.28 3204.46 2857.92 3079.19L2840.9 3015.93ZM4204.37 2154.14C4217.52 2192.88 4202.69 2247.25 4143.27 2317.31C4085.04 2385.96 3990.17 2461.91 3863.58 2539.53C3610.85 2694.51 3238.34 2852.16 2800.21 2970.03L2817.22 3033.29C3259.82 2914.22 3638.49 2754.41 3897.83 2595.38C4027.28 2516 4128.67 2435.8 4193.23 2359.68C4256.6 2284.96 4291.11 2205.91 4266.41 2133.09L4204.37 2154.14ZM2365.56 2222.66C2803.85 2104.75 3251.96 2037.58 3599.06 2027.54C3772.83 2022.51 3919.66 2031.86 4026.75 2055.56C4080.34 2067.41 4122.4 2082.53 4152.55 2100.15C4182.76 2117.81 4198.34 2136.34 4204.37 2154.14L4266.41 2133.09C4253.53 2095.11 4223.74 2065.89 4185.6 2043.6C4147.41 2021.28 4098.15 2004.26 4040.9 1991.6C3926.32 1966.24 3773.43 1956.96 3597.17 1962.06C3244.2 1972.27 2790.99 2040.37 2348.54 2159.4L2365.56 2222.66ZM1083.26 3007.35C1069.19 2965.86 1079.92 2912.34 1126.93 2847C1173.68 2782 1253.01 2710.41 1364.06 2636.96C1585.82 2490.28 1927.39 2340.54 2365.56 2222.66L2348.54 2159.4C1905.98 2278.47 1557.31 2430.59 1327.92 2582.32C1213.4 2658.07 1126.93 2734.82 1073.75 2808.75C1020.81 2882.33 997.459 2958.33 1021.22 3028.4L1083.26 3007.35ZM2800.21 2970.03C2361.9 3087.95 1944.53 3147.24 1628.35 3149.54C1470.03 3150.69 1338.78 3137.53 1243.48 3111.22C1145.63 3084.2 1096.52 3046.44 1083.26 3007.35L1021.22 3028.4C1045.81 3100.87 1125.08 3146.48 1226.05 3174.36C1329.57 3202.95 1467.57 3216.22 1628.82 3215.05C1951.77 3212.7 2374.79 3152.32 2817.22 3033.29L2800.21 2970.03Z" fill="black" mask="url(#path-4-outside-1_117_14)"/>
<mask id="path-6-inside-2_117_14" fill="white">
<path fill-rule="evenodd" clip-rule="evenodd" d="M2787.45 3047.56C3714.54 2798.14 4394.62 2385.24 4306.45 2125.32C4218.29 1865.4 3395.27 1856.88 2468.18 2106.29C1541.1 2355.71 861.015 2768.61 949.179 3028.53C1037.34 3288.45 1860.36 3296.97 2787.45 3047.56ZM2746.76 3001.66C3627.49 2764.72 4249.11 2366.73 4173.43 2143.62C4097.75 1920.5 3175.83 1954.09 2295.09 2191.03C1414.36 2427.98 914.605 2794.76 990.285 3017.88C1065.96 3240.99 1866.02 3238.61 2746.76 3001.66Z"/>
</mask>
<path fill-rule="evenodd" clip-rule="evenodd" d="M2787.45 3047.56C3714.54 2798.14 4394.62 2385.24 4306.45 2125.32C4218.29 1865.4 3395.27 1856.88 2468.18 2106.29C1541.1 2355.71 861.015 2768.61 949.179 3028.53C1037.34 3288.45 1860.36 3296.97 2787.45 3047.56ZM2746.76 3001.66C3627.49 2764.72 4249.11 2366.73 4173.43 2143.62C4097.75 1920.5 3175.83 1954.09 2295.09 2191.03C1414.36 2427.98 914.605 2794.76 990.285 3017.88C1065.96 3240.99 1866.02 3238.61 2746.76 3001.66Z" fill="white"/>
<path d="M4306.45 2125.32L4287.84 2131.63L4287.84 2131.63L4306.45 2125.32ZM2787.45 3047.56L2792.56 3066.53L2792.56 3066.53L2787.45 3047.56ZM2468.18 2106.29L2463.08 2087.32L2463.08 2087.32L2468.18 2106.29ZM949.179 3028.53L967.79 3022.22L967.79 3022.22L949.179 3028.53ZM4173.43 2143.62L4192.04 2137.3L4173.43 2143.62ZM2746.76 3001.66L2741.65 2982.69L2741.65 2982.69L2746.76 3001.66ZM2295.09 2191.03L2300.2 2210.01L2295.09 2191.03ZM4287.84 2131.63C4306.57 2186.84 4285.87 2254.13 4221.57 2331.43C4157.7 2408.22 4054.04 2490.67 3917.47 2573.58C3644.6 2739.25 3244.65 2904.2 2782.35 3028.58L2792.56 3066.53C3257.33 2941.5 3660.97 2775.29 3937.87 2607.18C4076.18 2523.2 4183.96 2438.1 4251.78 2356.57C4319.17 2275.56 4350.42 2193.77 4325.06 2119.01L4287.84 2131.63ZM2473.29 2125.27C2935.57 2000.9 3371.27 1941.04 3701.71 1944.46C3867.05 1946.17 4004.97 1963.72 4106.39 1996.33C4208.69 2029.22 4268.88 2075.74 4287.84 2131.63L4325.06 2119.01C4299.94 2044.94 4224.2 1992.92 4118.42 1958.91C4011.75 1924.61 3869.44 1906.89 3702.12 1905.16C3367.23 1901.69 2927.88 1962.27 2463.08 2087.32L2473.29 2125.27ZM967.79 3022.22C949.066 2967.02 969.762 2899.72 1034.07 2822.42C1097.94 2745.63 1201.59 2663.19 1338.16 2580.27C1611.03 2414.6 2010.98 2249.65 2473.29 2125.27L2463.08 2087.32C1998.3 2212.36 1594.66 2378.56 1317.76 2546.67C1179.45 2630.65 1071.67 2715.75 1003.85 2797.28C936.463 2878.29 905.21 2960.08 930.568 3034.84L967.79 3022.22ZM2782.35 3028.58C2320.06 3152.95 1884.36 3212.81 1553.92 3209.39C1388.58 3207.68 1250.66 3190.13 1149.25 3157.52C1046.94 3124.63 986.749 3078.11 967.79 3022.22L930.568 3034.84C955.691 3108.91 1031.44 3160.93 1137.22 3194.94C1243.89 3229.24 1386.2 3246.96 1553.52 3248.7C1888.4 3252.16 2327.76 3191.58 2792.56 3066.53L2782.35 3028.58ZM4154.82 2149.93C4170.28 2195.49 4151.52 2254.79 4091.31 2325.78C4031.81 2395.93 3935.64 2472.73 3808.48 2550.7C3554.42 2706.49 3180.68 2864.58 2741.65 2982.69L2751.86 3020.64C3193.57 2901.81 3571 2742.43 3829.02 2584.21C3957.9 2505.18 4057.99 2425.84 4121.28 2351.21C4183.86 2277.42 4214.43 2203.3 4192.04 2137.3L4154.82 2149.93ZM2300.2 2210.01C2739.32 2091.87 3188.45 2024.52 3536.73 2014.45C3711 2009.4 3859.04 2018.74 3967.62 2042.77C4021.94 2054.79 4065.44 2070.28 4097.2 2088.84C4129 2107.42 4147.42 2128.09 4154.82 2149.93L4192.04 2137.3C4180.53 2103.36 4153.59 2076.27 4117.03 2054.91C4080.45 2033.53 4032.63 2016.89 3976.11 2004.39C3863.03 1979.37 3711.35 1970.07 3535.59 1975.16C3183.8 1985.33 2731.6 2053.25 2289.99 2172.06L2300.2 2210.01ZM1008.9 3011.56C992.883 2964.36 1006.14 2906.34 1054.33 2839.35C1102.38 2772.57 1183.13 2699.94 1294.88 2626.03C1518.16 2478.34 1861.15 2328.13 2300.2 2210.01L2289.99 2172.06C1848.3 2290.88 1501.05 2442.53 1273.19 2593.25C1159.37 2668.54 1074.33 2744.25 1022.43 2816.4C970.677 2888.34 949.847 2959.84 971.674 3024.19L1008.9 3011.56ZM2741.65 2982.69C2302.52 3100.83 1884.02 3160.33 1566.48 3162.64C1407.58 3163.8 1274.98 3150.62 1178.04 3123.85C1079.57 3096.66 1024.42 3057.33 1008.9 3011.56L971.674 3024.19C993.991 3089.98 1067.23 3134.03 1167.58 3161.74C1269.45 3189.87 1406.1 3203.11 1566.77 3201.95C1888.36 3199.61 2310.26 3139.45 2751.86 3020.64L2741.65 2982.69Z" fill="white" mask="url(#path-6-inside-2_117_14)"/>
<path d="M4184.88 1099H1769.73L976.692 2000.18H2743C2916.02 2029.01 2899.2 2168.4 2851.14 2252.51L976.692 4163H3391.84L4184.88 3297.87H2382.53C2209.5 3269.03 2262.37 3117.64 2310.43 3045.54L4184.88 1099Z" fill="white"/>
</g>
<defs>
<clipPath id="clip0_117_14">
<rect width="5262" height="5262" rx="2631" fill="white"/>
</clipPath>
</defs>
</svg>
